<svg xmlns="http://www.w3.org/2000/svg" width="21" height="25" viewBox="0 0 21 25">
    <g fill="#666" fill-rule="evenodd">
        <path d="M13.882 14.68v-1.873h-.654v1.873h-1.873v.654h1.873v1.873h.654v-1.873h1.873v-.654h-1.873zm2.319-1.49c1.177 1.609.765 3.885-.899 4.97a3.407 3.407 0 0 1-3.726 0c-1.664-1.085-2.076-3.361-.899-4.97l2.618-3.577a.176.176 0 0 1 .286 0l2.62 3.577z"/>
        <path d="M18.523 22.896H7.775V7.779L13.24 3.4l5.283 4.379v15.117zm1.33-16.216l-5.817-4.887V.707a.714.714 0 0 0-.72-.707H7.673a.713.713 0 0 0-.719.707v1.086L1.141 6.68c-.31.26-.486.64-.486 1.04v16.337c0 .282.232.51.518.51H19.82c.289 0 .52-.228.52-.51V7.72c0-.4-.177-.78-.487-1.04z"/>
    </g>
</svg>
