<svg xmlns="http://www.w3.org/2000/svg" width="44" height="23" viewBox="0 0 44 23">
    <g fill="#5BBE85" fill-rule="evenodd">
        <path d="M41.35 16.011a.764.764 0 0 0-.765-.762.764.764 0 0 0-.766.762c0 .421.343.763.766.763a.764.764 0 0 0 .766-.763M20.535 4.698c-1.153.01-2.096.741-2.29 1.779-.232 1.235.39 2.253 1.544 2.752.764.33 1.496.76 2.181 1.23.756.521 1.739.47 2.283-.226.55-.7.327-1.603-.366-2.224-.436-.39-.813-.947-.983-1.498-.334-1.089-1.185-1.823-2.37-1.813m23.229 6.336c.29 1.048-.244 1.796-1.015 2.491 0 2.298.002 4.61-.001 6.921-.002 1.442-.428 1.768-1.907 1.87-1.336.09-2.135-.349-2.786-1.536a95.23 95.23 0 0 0-4.247-7.012c-1.513-2.268-3.808-2.972-5.803-1.755-.866.529-1.64 1.433-2.09 2.34-1.277 2.58-2.365 5.248-3.537 7.9h-1.812c.117-.576.215-1.107.334-1.633.563-2.478 1.086-4.65 1.618-7.134.077-.356.11-.686.07-1.197a.337.337 0 0 0-.443-.286c-3.577 1.18-6.754 2.323-9.882 3.852a.462.462 0 0 0-.259.442l.375 5.93h-1.841l-3.39-7.032a.342.342 0 0 0-.576-.056c-1.65 2.14-2.476 4.525-2.943 7.099H1.81v-1.313c0-1.881.105-3.77-.033-5.642-.11-1.47.493-2.533 1.429-3.529 1.675.309 1.813.227 2.65-1.188.165-.28.498-.526.81-.649 1.47-.578 2.12-1.66 1.72-2.959-.393-1.279-1.56-1.84-3.12-1.503-.075.016-.153.017-.38.04l-.322-3.666c-.61.646-1.305 1.155-1.675 1.834-.44.806-.622 1.753-.865 2.652-.057.212.028.51.149.71.87 1.432.623 2.641-.782 3.667C.133 10.14-.391 8.4.32 7.29c.248-.386.44-.85.505-1.3C1.27 2.87 3.657.464 6.819.015c.225-.031.458-.004.773-.004-.026 1.463.867 1.98 2.204 2.11.3.03.628.345.842.608 1.073 1.32 2.31 1.709 3.58 1.076 1.287-.642 1.699-1.872 1.185-3.534C15.389.226 15.4.173 15.4.045h9.414c-.058.204-.11.391-.165.578-.614 2.118 1.059 3.85 3.263 3.407.601-.122 1.265-.302 1.83-.168 1.288.304 2.333.241 2.936-1.2a.053.053 0 0 1 .09-.013c.267.334.462.566.642.808 1.907 2.571 3.808 5.147 5.718 7.716.76 1.021 1.313 1.09 2.327.318.852-.648 1.418-.762 2.307-.457"/>
        <path d="M31.317 22.256h-1.808c-.344-1.726-.692-3.432-1.022-5.141-.134-.697-.289-1.397-.33-2.101-.063-1.108.547-1.772 1.54-1.795.965-.023 1.61.646 1.615 1.737.014 2.405.005 4.809.005 7.3"/>
    </g>
</svg>
