<svg xmlns="http://www.w3.org/2000/svg" width="25" height="25" viewBox="0 0 25 25">
    <path fill="#5BBE85" fill-rule="evenodd" d="M21.811 8.962H10.964a.3.3 0 0 1-.301-.302V7.443c0-.167.134-.302.3-.302h10.848c.167 0 .302.135.302.302V8.66a.3.3 0 0 1-.302.302zm.302 3.472v8.601c0 .421-.341.762-.762.762H3.516a.761.761 0 0 1-.763-.762v-8.6h19.36zM2.753 8.511V3.54a.45.45 0 0 1 .451-.45h4.971c.249 0 .451.202.451.45V8.51a.451.451 0 0 1-.451.451h-4.97a.45.45 0 0 1-.452-.45zm8.21-5.421h6.57a.3.3 0 0 1 .301.3v1.22a.301.301 0 0 1-.3.301h-6.57a.301.301 0 0 1-.301-.302V3.391a.3.3 0 0 1 .3-.301zM23.878 0H.99A.989.989 0 0 0 0 .99v22.89c0 .545.442.988.989.988h22.888c.547 0 .99-.443.99-.989V.99a.99.99 0 0 0-.99-.989z"/>
</svg>
