<svg xmlns="http://www.w3.org/2000/svg" width="28" height="26" viewBox="0 0 28 26">
    <g fill="#5BBE85" fill-rule="evenodd">
        <path d="M28 25.257c-.005-.135-.021-.318-.009-.595.04-.949-.682-3.032-1.325-4.244a6.412 6.412 0 0 0-.517-.825 5.685 5.685 0 0 0-1.53-1.411c-.643-.418-1.447-.72-2.492-1.098-.673-.245-2.473-1.107-3.66-1.686-.353.29-2.005 1.534-4.41 1.534-2.406 0-4.057-1.244-4.41-1.534-1.189.579-2.987 1.44-3.662 1.686-1.044.379-1.847.68-2.49 1.098-.641.417-1.405 1.023-2.048 2.236C.805 21.63.083 23.713.123 24.662c.012.277-.004.46-.008.595h27.884z"/>
        <path d="M9.544 11.99s.12 1.077 1.222 2.488c.352.278 1.575 1.142 3.273 1.142 1.709 0 2.92-.86 3.27-1.14 1.105-1.412 1.225-2.49 1.225-2.49.523-.513 1.198-1.649 1.496-2.419.3-.77.039-1.87 0-2.163-.036-.294-.523 0-.523 0s.037-2.237-.224-3.85c-.262-1.615-1.648-2.532-2.66-3.009C15.611.074 14.039 0 14.039 0s-1.573.075-2.585.55c-1.01.477-2.397 1.394-2.659 3.009-.262 1.613-.224 3.85-.224 3.85s-.489-.294-.526 0c-.036.293-.299 1.392 0 2.163.3.77.974 1.906 1.5 2.42"/>
    </g>
</svg>
